<svg xmlns="http://www.w3.org/2000/svg" viewBox="0 0 240 240" width="240" height="240">
  <defs>
    <linearGradient id="gradMS102" x1="0%" y1="0%" x2="100%" y2="100%">
      <stop offset="0%" style="stop-color:#8B5CF6"/>
      <stop offset="50%" style="stop-color:#6D28D9"/>
      <stop offset="100%" style="stop-color:#4C1D95"/>
    </linearGradient>
    <filter id="shadowMS102" x="-20%" y="-20%" width="140%" height="140%">
      <feDropShadow dx="0" dy="6" stdDeviation="10" flood-color="#6D28D9" flood-opacity="0.5"/>
    </filter>
    <radialGradient id="shineMS102" cx="35%" cy="30%" r="60%">
      <stop offset="0%" style="stop-color:#FFFFFF;stop-opacity:0.15"/>
      <stop offset="100%" style="stop-color:#FFFFFF;stop-opacity:0"/>
    </radialGradient>
  </defs>
  <path d="M120,14 L206,52 L206,138 Q206,188 120,226 Q34,188 34,138 L34,52 Z"
    fill="#4C1D95" opacity="0.3" transform="translate(0,6)" filter="url(#shadowMS102)"/>
  <path d="M120,14 L206,52 L206,138 Q206,188 120,226 Q34,188 34,138 L34,52 Z"
    fill="url(#gradMS102)"/>
  <path d="M120,14 L206,52 L206,138 Q206,188 120,226 Q34,188 34,138 L34,52 Z"
    fill="url(#shineMS102)"/>
  <path d="M120,24 L196,58 L196,138 Q196,180 120,214 Q44,180 44,138 L44,58 Z"
    fill="none" stroke="#A78BFA" stroke-width="1.5" opacity="0.6"/>
  <g transform="translate(96, 76)">
    <rect x="0" y="0" width="20" height="20" rx="2" fill="#F25022" opacity="0.95"/>
    <rect x="24" y="0" width="20" height="20" rx="2" fill="#7FBA00" opacity="0.95"/>
    <rect x="0" y="24" width="20" height="20" rx="2" fill="#00A4EF" opacity="0.95"/>
    <rect x="24" y="24" width="20" height="20" rx="2" fill="#FFB900" opacity="0.95"/>
  </g>
  <line x1="70" y1="138" x2="170" y2="138" stroke="#C4B5FD" stroke-width="1.5" opacity="0.6"/>
  <text x="120" y="158" font-family="'Arial Black', Arial, sans-serif"
    font-size="22" font-weight="900" fill="white" text-anchor="middle" letter-spacing="2">MS-102</text>
  <text x="120" y="178" font-family="Arial, Helvetica, sans-serif"
    font-size="7.5" font-weight="600" fill="#DDD6FE" text-anchor="middle"
    letter-spacing="1.5" opacity="0.9">M365 ENTERPRISE ADMIN</text>
  <text x="120" y="196" font-family="Arial, Helvetica, sans-serif"
    font-size="7.5" font-weight="600" fill="#A78BFA" text-anchor="middle"
    letter-spacing="2.5" opacity="0.8">MICROSOFT</text>
</svg>
