<svg xmlns="http://www.w3.org/2000/svg" viewBox="0 0 240 240" width="240" height="240">
  <defs>
    <linearGradient id="gradADP" x1="0%" y1="0%" x2="100%" y2="100%">
      <stop offset="0%" style="stop-color:#374151"/>
      <stop offset="50%" style="stop-color:#1F2937"/>
      <stop offset="100%" style="stop-color:#111827"/>
    </linearGradient>
    <filter id="shadowADP" x="-20%" y="-20%" width="140%" height="140%">
      <feDropShadow dx="0" dy="6" stdDeviation="10" flood-color="#1F2937" flood-opacity="0.6"/>
    </filter>
    <radialGradient id="shineADP" cx="35%" cy="30%" r="60%">
      <stop offset="0%" style="stop-color:#FFFFFF;stop-opacity:0.1"/>
      <stop offset="100%" style="stop-color:#FFFFFF;stop-opacity:0"/>
    </radialGradient>
  </defs>
  <circle cx="120" cy="120" r="108" fill="#111827" opacity="0.4" transform="translate(0,6)" filter="url(#shadowADP)"/>
  <circle cx="120" cy="120" r="108" fill="url(#gradADP)"/>
  <circle cx="120" cy="120" r="108" fill="url(#shineADP)"/>
  <circle cx="120" cy="120" r="100" fill="none" stroke="#4B5563" stroke-width="1.5" opacity="0.7"/>
  <circle cx="120" cy="120" r="88" fill="none" stroke="#374151" stroke-width="0.75" opacity="0.5"/>
  <g transform="translate(120, 87) scale(1.6)">
    <path d="M1.5,-24 C9,-22 15,-15 15,-7 C15,3 8,10 0,10 C-8,10 -15,3 -15,-7 C-15,-15 -9,-22 -1.5,-24 C-1.5,-24 -4,-18 -1.5,-16 C1,-14 4,-16 6.5,-19 Z" fill="white" opacity="0.95"/>
    <path d="M4,-32 C4,-32 7,-25 3,-22" fill="none" stroke="white" stroke-width="2.5" stroke-linecap="round" opacity="0.9"/>
  </g>
  <line x1="72" y1="140" x2="168" y2="140" stroke="#6B7280" stroke-width="1.5" opacity="0.5"/>
  <text x="120" y="160" font-family="Arial, Helvetica, sans-serif" font-size="9" font-weight="700" fill="white" text-anchor="middle" letter-spacing="1" opacity="0.95">DEPLOYMENT AND</text>
  <text x="120" y="176" font-family="Arial, Helvetica, sans-serif" font-size="9" font-weight="700" fill="white" text-anchor="middle" letter-spacing="1" opacity="0.95">MANAGEMENT</text>
  <text x="120" y="196" font-family="Arial, Helvetica, sans-serif" font-size="8.5" font-weight="600" fill="#9CA3AF" text-anchor="middle" letter-spacing="3" opacity="0.8">APPLE</text>
  <circle cx="120" cy="22" r="4" fill="#6B7280" opacity="0.7"/>
  <circle cx="120" cy="218" r="4" fill="#6B7280" opacity="0.7"/>
</svg>
