<svg xmlns="http://www.w3.org/2000/svg" viewBox="0 0 240 240" width="240" height="240">
  <defs>
    <linearGradient id="gradADS" x1="0%" y1="0%" x2="100%" y2="100%">
      <stop offset="0%" style="stop-color:#6B7280"/>
      <stop offset="50%" style="stop-color:#4B5563"/>
      <stop offset="100%" style="stop-color:#374151"/>
    </linearGradient>
    <filter id="shadowADS" x="-20%" y="-20%" width="140%" height="140%">
      <feDropShadow dx="0" dy="6" stdDeviation="10" flood-color="#4B5563" flood-opacity="0.5"/>
    </filter>
    <radialGradient id="shineADS" cx="35%" cy="30%" r="60%">
      <stop offset="0%" style="stop-color:#FFFFFF;stop-opacity:0.12"/>
      <stop offset="100%" style="stop-color:#FFFFFF;stop-opacity:0"/>
    </radialGradient>
  </defs>
  <circle cx="120" cy="120" r="108" fill="#374151" opacity="0.3" transform="translate(0,6)" filter="url(#shadowADS)"/>
  <circle cx="120" cy="120" r="108" fill="url(#gradADS)"/>
  <circle cx="120" cy="120" r="108" fill="url(#shineADS)"/>
  <circle cx="120" cy="120" r="100" fill="none" stroke="#9CA3AF" stroke-width="1.5" opacity="0.6"/>
  <circle cx="120" cy="120" r="88" fill="none" stroke="#6B7280" stroke-width="0.75" opacity="0.4"/>
  <g transform="translate(120, 90) scale(1.6)">
    <path d="M1.5,-24 C9,-22 15,-15 15,-7 C15,3 8,10 0,10 C-8,10 -15,3 -15,-7 C-15,-15 -9,-22 -1.5,-24 C-1.5,-24 -4,-18 -1.5,-16 C1,-14 4,-16 6.5,-19 Z" fill="white" opacity="0.92"/>
    <path d="M4,-32 C4,-32 7,-25 3,-22" fill="none" stroke="white" stroke-width="2.5" stroke-linecap="round" opacity="0.9"/>
  </g>
  <line x1="72" y1="143" x2="168" y2="143" stroke="#D1D5DB" stroke-width="1.5" opacity="0.5"/>
  <text x="120" y="166" font-family="Arial, Helvetica, sans-serif" font-size="10" font-weight="700" fill="white" text-anchor="middle" letter-spacing="1.5" opacity="0.95">DEVICE SUPPORT</text>
  <text x="120" y="185" font-family="Arial, Helvetica, sans-serif" font-size="8.5" font-weight="600" fill="#D1D5DB" text-anchor="middle" letter-spacing="3" opacity="0.8">APPLE</text>
  <circle cx="120" cy="22" r="4" fill="#9CA3AF" opacity="0.7"/>
  <circle cx="120" cy="218" r="4" fill="#9CA3AF" opacity="0.7"/>
</svg>
